<?xml version="1.0" encoding="UTF-8"?>
<svg width="120px" height="31px" viewBox="0 0 120 31" version="1.1" xmlns="http://www.w3.org/2000/svg" xmlns:xlink="http://www.w3.org/1999/xlink">
    <title>Group</title>
    <defs>
        <filter color-interpolation-filters="auto" id="filter-1">
            <feColorMatrix in="SourceGraphic" type="matrix" values="0 0 0 0 1.000000 0 0 0 0 1.000000 0 0 0 0 1.000000 0 0 0 1.000000 0"></feColorMatrix>
        </filter>
        <polygon id="path-2" points="0 0 15 0 15 24 0 24"></polygon>
        <filter color-interpolation-filters="auto" id="filter-4">
            <feColorMatrix in="SourceGraphic" type="matrix" values="0 0 0 0 1.000000 0 0 0 0 1.000000 0 0 0 0 1.000000 0 0 0 1.000000 0"></feColorMatrix>
        </filter>
        <polygon id="path-5" points="0 0 8 0 8 18 0 18"></polygon>
        <polygon id="path-7" points="0 0 6 0 6 16 0 16"></polygon>
    </defs>
    <g id="页面-1" stroke="none" stroke-width="1" fill="none" fill-rule="evenodd">
        <g id="桌面端-HD" transform="translate(-165.000000, -38.000000)">
            <g id="Group" transform="translate(165.000000, 38.000000)">
                <g filter="url(#filter-1)" id="编组">
                    <g transform="translate(44.000000, 0.000000)">
                        <g transform="translate(22.000000, 0.000000)">
                            <mask id="mask-3" fill="white">
                                <use xlink:href="#path-2"></use>
                            </mask>
                            <g id="Clip-2"></g>
                            <path d="M4.29024843,16.8863545 C4.29588266,17.2384081 4.31061834,17.5115764 4.33445546,17.7049579 C4.35872598,17.8987902 4.38689712,18.0723378 4.41983569,18.224699 C4.57369347,18.9409769 4.86927378,19.5130076 5.3065766,19.9412418 C5.74344603,20.3703775 6.30166807,20.5840438 6.98037592,20.5840438 C7.55333364,20.5840438 8.05347978,20.4609828 8.48038095,20.2144101 C8.90728213,19.9678374 9.27177338,19.6365194 9.57428812,19.2195545 C9.87680286,18.8030405 10.1212417,18.3216151 10.3084715,17.7757293 C10.4952678,17.2298434 10.6261553,16.6546573 10.7011339,16.050171 C10.775679,15.4456847 10.7999496,14.8348876 10.7726452,14.2186812 C10.7457743,13.6024747 10.6729627,13.018724 10.5542105,12.4665273 C10.4683969,12.0680442 10.3431436,11.689395 10.1784508,11.3310306 C10.013758,10.973117 9.81092572,10.6562238 9.5703875,10.3799 C9.32984928,10.1044779 9.04337042,9.88720538 8.71095093,9.72853335 C8.37853144,9.5703121 8.00190492,9.49097609 7.58063798,9.49097609 C7.19447661,9.49097609 6.7996472,9.57301674 6.39614975,9.73754881 C5.99265229,9.90208088 5.63379527,10.1662337 5.32001207,10.5295566 C5.00622887,10.893781 4.74835456,11.3549216 4.54638913,11.9120768 C4.34442371,12.4696827 4.24734161,13.147645 4.25514285,13.9459636 L4.29024843,16.8863545 Z M4.16932922,5.45836268 C4.15546035,6.374333 4.12252178,7.23125208 4.07224712,8.0295707 L4.14245828,8.0295707 C4.29978328,7.78299798 4.5004485,7.54498994 4.74402054,7.31644814 C4.98672578,7.08745556 5.26973742,6.87919853 5.59218866,6.69122627 C5.9146399,6.50370479 6.28043136,6.35404822 6.68956304,6.24225657 C7.09826132,6.13091569 7.54856621,6.07501986 8.04004431,6.07501986 C8.7655596,6.07501986 9.48067324,6.20439165 10.1853852,6.46223369 C10.8905306,6.7205265 11.5371667,7.1050357 12.1270271,7.61576127 C12.7164541,8.12603607 13.2335029,8.76297803 13.678607,9.52613637 C14.1232777,10.2892947 14.4539636,11.175514 14.6710981,12.1847943 C14.857461,13.0538843 14.9649448,13.9486682 14.9935493,14.8700478 C15.0217204,15.7918782 14.9575769,16.6925222 14.8019855,17.5728815 C14.6455273,18.4536915 14.3815854,19.2808596 14.0101597,20.0557381 C13.6383006,20.8306165 13.1498563,21.5117342 12.5448268,22.0986404 C11.939364,22.6855465 11.2021468,23.1493917 10.3336088,23.4892744 C9.46463736,23.8296079 8.45134301,24 7.29285891,24 C6.38054727,24 5.53671317,23.8593589 4.76265684,23.5776259 C3.98816709,23.2958929 3.3007912,22.9145391 2.70009574,22.4331138 C2.09896688,21.9516884 1.59622032,21.3796578 1.19055586,20.7161202 C0.784891394,20.0530334 0.501012949,19.3457709 0.339787329,18.5943327 C0.273910194,18.2891595 0.22406894,17.9754216 0.189830166,17.6522175 C0.155591392,17.3294642 0.134354684,16.9039347 0.126120042,16.375629 L0,-4.50772794e-05 L4.14202488,-4.50772794e-05 L4.16932922,5.45836268 Z" id="Fill-1" fill="#231916" mask="url(#mask-3)"></path>
                        </g>
                        <path d="M49.0136209,7.44065981 L46.9704272,12.4329834 C46.022299,14.7925771 45.4017468,16.4081869 45.1096694,17.2798129 L45.0395709,17.2798129 C44.6414469,16.1640603 43.9624793,14.444016 43.0035667,12.1192338 L40.4584492,6 L36,6 L42.9505434,21.9516924 L39.0542309,31 L43.1612885,31 L52,10.825407 L49.0136209,7.44065981 Z" id="Fill-3" fill="#231916"></path>
                        <path d="M10.9829199,5.53503233 C10.1827846,7.94126201 9.46848748,9.95188076 8.84090457,11.5673287 L8.05872517,13.6140321 L13.975435,13.6140321 L13.1932556,11.5673287 C12.5726799,9.93735889 11.8588207,7.92718019 11.0512402,5.53503233 L10.9829199,5.53503233 Z M15.3273878,17.1380056 L6.70677231,17.1380056 L4.46490425,23 L0,23 L9.08396703,0 L12.916033,0 L22,23 L17.5692559,23 L15.3273878,17.1380056 Z" id="Fill-5" fill="#231916"></path>
                        <polygon id="Fill-7" fill="#231916" points="59.1683507 17.4876391 54.7887944 23.3873645 50.0240201 23.3873645 56.7332707 14.7390053 44 0 48.887201 0 59.2732878 12.0253289 63.3026052 6.42363742 68.2072957 6.42363742 61.7258573 14.7215267 76 31 71.1477781 31"></polygon>
                    </g>
                </g>
                <g filter="url(#filter-4)" id="编组">
                    <g>
                        <path d="M8,2.25286871 C8.2078501,2.50165467 8.42795946,2.7443592 8.66311427,2.97766515 C12.7242712,7.00744495 19.3097203,7.00744495 23.3714345,2.97766515 C23.5937729,2.75652207 23.801623,2.52708613 24,2.2921216 C19.1263887,-0.750807191 12.8853133,-0.764075776 8,2.25286871" id="Fill-1" fill="#231916"></path>
                        <g transform="translate(0.000000, 6.000000)">
                            <mask id="mask-6" fill="white">
                                <use xlink:href="#path-5"></use>
                            </mask>
                            <g id="Clip-4"></g>
                            <path d="M2.96351583,0 C-0.988000425,5.3883467 -0.988000425,12.6116533 2.96351583,18 C3.57032115,17.6121364 4.14739301,17.1633974 4.68320211,16.6514639 C9.1055993,12.4255484 9.1055993,5.57445164 4.68320211,1.34853609 C4.14739301,0.83660257 3.57032115,0.387863562 2.96351583,0" id="Fill-3" fill="#231916" mask="url(#mask-6)"></path>
                        </g>
                        <path d="M24,28.0578344 C23.7658983,27.7608377 23.5147088,27.4726106 23.2452925,27.1960762 C19.0935469,22.9346413 12.3626952,22.9346413 8.21094954,27.1960762 C7.75641627,27.6626183 7.35485492,28.1624848 7,28.6857369 C12.2333981,31.9679012 18.9568451,31.759185 24,28.0578344" id="Fill-5" fill="#231916"></path>
                        <g transform="translate(25.000000, 8.000000)">
                            <mask id="mask-8" fill="white">
                                <use xlink:href="#path-7"></use>
                            </mask>
                            <g id="Clip-8"></g>
                            <path d="M3.04793454,15.3809374 C3.26649042,15.6001538 3.49340941,15.8048303 3.72534626,16 C6.75780905,11.1174024 6.75836659,4.88315683 3.72646134,0 C3.49396695,0.195728915 3.26649042,0.400964664 3.04793454,0.620181049 C-1.01597818,4.69637552 -1.01597818,11.3047429 3.04793454,15.3809374" id="Fill-7" fill="#231916" mask="url(#mask-8)"></path>
                        </g>
                        <path d="M12.3181618,12.3181618 C14.0757108,10.5606127 16.9248559,10.5606127 18.6818382,12.3181618 C20.4393873,14.0757108 20.4393873,16.9248559 18.6818382,18.6818382 C16.9248559,20.4393873 14.0757108,20.4393873 12.3181618,18.6818382 C10.5606127,16.9248559 10.5606127,14.0757108 12.3181618,12.3181618" id="Fill-9" fill="#231916"></path>
                    </g>
                </g>
            </g>
        </g>
    </g>
</svg>